<svg xmlns="http://www.w3.org/2000/svg" width="20" height="20">
    <path fill="#37436D" fill-rule="evenodd" d="M1.993 19.999H18.01c1.106 0 2.003-.898 2.003-2.003V1.995c0-1.104-.897-1.992-2.003-1.992H1.993C.887.003-.009.895-.009 1.999v15.994c0 1.104 1.001 2.006 2.002 2.006zm0-16.996c0-.552.448-1 1.001-1H17.01c.552 0 1 .448 1 1V17c0 .552-.448 1-1 1H2.994c-.553 0-1.001-.448-1.001-1V3.003zm7.008 1.992c0-.552.447-1 1.001-1 .553 0 1.001.448 1.001 1s-.448.999-1.001.999c-.554 0-1.001-.447-1.001-.999zm0 8.998V8.994c0-.552.447-.999 1.001-.999.553 0 1.001.447 1.001.999v4.999c0 .552-.448 1-1.001 1-.554 0-1.001-.448-1.001-1z"/>
</svg>
