<svg xmlns="http://www.w3.org/2000/svg" width="8" height="10">
    <path fill="#3A4275" fill-rule="evenodd" d="M3.957 9.997c.034.002.067-.002.101-.004.086-.006.168-.022.249-.049.034-.011.066-.02.098-.035.108-.049.211-.11.298-.197L7.709 6.71c.391-.391.391-1.024 0-1.415s-1.025-.391-1.417 0L4.997 6.589V1c0-.552-.449-1.001-1.002-1.001-.554 0-1.003.449-1.003 1.001v5.589L1.697 5.295c-.391-.391-1.026-.391-1.417 0-.196.196-.294.452-.294.708 0 .256.098.512.294.707l3.006 3.002c.009.009.021.011.03.02.087.08.182.15.295.196l.003.001c.009.004.018.004.027.007.103.039.209.057.316.061z"/>
</svg>
