<svg xmlns="http://www.w3.org/2000/svg" width="8" height="10">
    <path fill="#3A4275" fill-rule="evenodd" d="M4.041.001c-.034-.001-.066.003-.1.006-.086.005-.168.021-.25.048-.033.011-.065.021-.097.035-.109.048-.211.111-.298.197L.289 3.289c-.391.391-.391 1.024 0 1.415.392.39 1.026.39 1.417 0L3.002 3.41v5.588c0 .553.449 1.001 1.002 1.001.554 0 1.002-.448 1.002-1.001V3.41l1.296 1.294c.391.39 1.025.39 1.417 0 .196-.196.294-.452.294-.708 0-.256-.098-.512-.294-.707L4.713.287c-.01-.009-.022-.012-.031-.02-.086-.08-.182-.15-.294-.196L4.384.07C4.376.066 4.367.066 4.358.063c-.104-.039-.21-.058-.317-.062z"/>
</svg>
