<svg xmlns="http://www.w3.org/2000/svg" width="20" height="20">
    <path fill="#37436D" fill-rule="evenodd" d="M6.992.002H1.995c-1.104 0-2 .896-2 2v7.999c0 1.104.896 1.999 2 1.999h4.997c1.105 0 1.999-.895 1.999-1.999V2.002c0-1.104-.894-2-1.999-2zm0 8.999c0 .552-.447 1-.999 1H2.994c-.552 0-.999-.448-.999-1V3.002c0-.552.447-1 .999-1h2.999c.552 0 .999.448.999 1v5.999zm10.996-1H12.99c-1.105 0-1.999.896-1.999 2v7.998c0 1.105.894 2 1.999 2h4.998c1.104 0 1.999-.895 1.999-2v-7.998c0-1.104-.895-2-1.999-2zm0 8.999c0 .552-.448.999-1 .999h-2.999c-.552 0-.999-.447-.999-.999v-5.999c0-.552.447-1 .999-1h2.999c.552 0 1 .448 1 1V17zm0-16.998H12.99c-1.105 0-1.999.896-1.999 2v2c0 1.104.894 1.999 1.999 1.999h4.998c1.104 0 1.999-.895 1.999-1.999v-2c0-1.104-.895-2-1.999-2zm-1 4h-2.999c-.552 0-.999-.448-.999-1s.447-1 .999-1h2.999c.552 0 1 .448 1 1s-.448 1-1 1zM6.992 14H1.995c-1.104 0-2 .895-2 2v1.999c0 1.105.896 2 2 2h4.997c1.105 0 1.999-.895 1.999-2V16c0-1.105-.894-2-1.999-2zm-.999 3.999H2.994c-.552 0-.999-.447-.999-.999 0-.553.447-1 .999-1h2.999c.552 0 .999.447.999 1 0 .552-.447.999-.999.999z"/>
</svg>
