<svg xmlns="http://www.w3.org/2000/svg" width="20" height="16">
    <path fill="#37436D" fill-rule="evenodd" d="M19.674 4.383L16.776.805c-.368-.563-.999-.815-1.675-.815H4.939c-.688 0-1.327.264-1.693.843L.318 4.638c-.473.749-.391 1.696.201 2.356l7.984 8.339c.8.892 2.205.88 2.997-.02l8.003-8.537c.589-.669.659-1.648.171-2.393zM4.645 2.441c.183-.289.502-.464.845-.464h9.025c.336 0 .65.168.834.447l2.161 2.532H2.599l2.046-2.515zm6.083 10.799c-.395.451-1.099.498-1.499.052L3.044 6.943h13.738l-6.054 6.297z"/>
</svg>
