<svg xmlns="http://www.w3.org/2000/svg" width="20.031" height="20" viewBox="0 0 20.031 20">
  <defs>
    <style>
      .cls-1 {
        fill: #b2dd4c;
        fill-rule: evenodd;
      }
    </style>
  </defs>
  <path id="_-e-profile_round" data-name="-e-profile_round" class="cls-1" d="M172.966,1184.63a9.5,9.5,0,0,0-6.125-6.96,5.942,5.942,0,0,0,2.218-5.61,6.143,6.143,0,0,0-12.189.93,5.952,5.952,0,0,0,2.291,4.68,9.5,9.5,0,0,0-6.126,6.96,2,2,0,0,0,2.012,2.36h15.907A2,2,0,0,0,172.966,1184.63Zm-14.053-11.64a4.088,4.088,0,1,1,4.087,4A4.044,4.044,0,0,1,158.913,1172.99Zm10.657,12H156.432a1,1,0,0,1-.962-1.34,8.415,8.415,0,0,1,15.061,0A1,1,0,0,1,169.57,1184.99Z" transform="translate(-153 -1167)"/>
</svg>
