<svg xmlns="http://www.w3.org/2000/svg" width="20" height="20">
    <path fill="#B2DD4C" fill-rule="evenodd" d="M18.007.01H6.409c-.266 0-.521.105-.708.293L.28 5.716c-.187.188-.293.442-.293.707v11.584c0 1.104.897 2 2.002 2h16.018c1.106 0 2.002-.896 2.002-2V2.01c0-1.105-.896-2-2.002-2zM5.994 2.846l.838-.836h7.171v2.999c0 .552-.449 1-1.001 1H6.995c-.553 0-1.001-.448-1.001-1V2.846zm8.009 15.161H5.994v-3c0-.552.448-.999 1.001-.999h6.007c.552 0 1.001.447 1.001.999v3zm4.004-1c0 .552-.448 1-1.001 1h-1.001v-3.999c0-1.105-.896-2-2.002-2H5.994c-1.106 0-2.002.895-2.002 2v3.999H2.99c-.552 0-1.001-.448-1.001-1V7.053c0-.133.053-.26.147-.354l1.856-1.853v1.163c0 1.104.896 2 2.002 2h8.009c1.106 0 2.002-.896 2.002-2V2.01h1.001c.553 0 1.001.447 1.001 1v13.997zM6.87 4.009c0-.552.448-.999 1.001-.999.553 0 1.001.447 1.001.999 0 .553-.448 1-1.001 1-.553 0-1.001-.447-1.001-1z"/>
</svg>
