<svg xmlns="http://www.w3.org/2000/svg" width="20" height="20">
    <path fill="#37436D" fill-rule="evenodd" d="M19.002 7.009h-1.588c-.812-1.998-2.411-3.598-4.415-4.409V1.014c0-.552-.448-.999-1.001-.999H7.996c-.553 0-1.001.447-1.001.999V2.6c-2.004.811-3.603 2.407-4.415 4.409H.992c-.553 0-1.001.447-1.001.999v3.996c0 .552.448.999 1.001.999H2.58c.812 2.002 2.411 3.599 4.415 4.409v1.586c0 .552.448.999 1.001.999h4.002c.553 0 1.001-.447 1.001-.999v-1.586c2.004-.81 3.603-2.407 4.415-4.409h1.588c.553 0 1.001-.447 1.001-.999V8.008c0-.552-.448-.999-1.001-.999zM3.993 11.005H1.992V9.007h2.001v1.998zm5.003-8.992h2.002v1.999H8.996V2.013zm2.002 15.986H8.996v-1.998h2.002v1.998zM15 13.003h.188c-.527.906-1.282 1.661-2.189 2.186v-.187c0-.552-.448-.999-1.001-.999H7.996c-.553 0-1.001.447-1.001.999v.187c-.907-.525-1.663-1.28-2.189-2.186h.188c.553 0 1.001-.447 1.001-.999V8.008c0-.552-.448-.999-1.001-.999h-.188c.526-.906 1.282-1.661 2.189-2.186v.188c0 .551.448.999 1.001.999h4.002c.553 0 1.001-.448 1.001-.999v-.188c.907.525 1.662 1.187 2.189 2.186H15c-.553 0-1.001.447-1.001.999v3.996c0 .552.448.999 1.001.999zm3.001-1.998h-2V9.007h2v1.998z"/>
</svg>
