<svg xmlns="http://www.w3.org/2000/svg" width="18" height="19">
    <path fill="#B0DA4C" fill-rule="evenodd" d="M16.173 8.154c.164.888.164 1.799 0 2.686l1.62.942c.186.107.27.329.213.54-.422 1.366-1.141 2.598-2.08 3.62-.088.098-.21.149-.334.149-.078 0-.156-.02-.229-.062l-1.619-.941c-.684.586-1.467 1.041-2.312 1.343v1.883c0 .214-.148.402-.357.448-.672.151-1.37.229-2.076.229-.689 0-1.386-.074-2.075-.229-.209-.046-.358-.234-.358-.448v-1.883c-.847-.298-1.631-.753-2.311-1.343l-1.62.941c-.07.042-.147.061-.224.061-.125 0-.249-.052-.338-.148-.94-1.026-1.658-2.258-2.08-3.62-.061-.207.023-.429.209-.536l1.62-.942c-.164-.888-.164-1.798 0-2.686l-1.62-.942c-.186-.107-.274-.329-.209-.535.422-1.367 1.14-2.599 2.08-3.621.088-.098.21-.149.334-.149.078 0 .156.02.228.061l1.616.942c.684-.585 1.468-1.041 2.311-1.343V.688c0-.215.149-.402.358-.448C7.592.089 8.29.01 8.996.01c.689 0 1.387.075 2.075.23.209.046.358.233.358.448v1.879c.848.298 1.631.754 2.311 1.343l1.62-.941c.069-.041.147-.061.224-.061.125 0 .249.051.338.148.939 1.026 1.658 2.258 2.08 3.621.061.206-.023.429-.209.536l-1.62.941zm-1.972 2.319c.119-.648.119-1.304 0-1.951l-.258-1.403 1.228-.713.458-.267c-.128-.255-.272-.504-.43-.746l-.456.265-1.232.717-1.079-.934c-.493-.427-1.053-.753-1.665-.968L9.423 4V2.042c-.142-.009-.284-.013-.427-.013-.142 0-.285.004-.428.013V3.995l-1.333.477c-.617.222-1.184.551-1.686.98l-1.078.923-1.225-.714-.451-.262c-.157.24-.3.489-.429.744l.459.266 1.228.714-.259 1.403c-.119.647-.119 1.303 0 1.95l.259 1.402-1.228.714-.459.267c.129.255.272.505.43.746l.456-.265 1.233-.717 1.079.935c.492.426 1.052.752 1.664.967l1.344.473v1.963c.142.008.284.012.427.012.143 0 .285-.004.428-.012v-1.955l1.334-.477c.616-.22 1.182-.55 1.684-.979l1.077-.922 1.225.712.456.265c.158-.241.302-.491.43-.747l-.462-.269-1.228-.714.258-1.402zm-5.203.95c-1.108 0-2.006-.904-2.006-2.019 0-1.115.898-2.019 2.006-2.019 1.107 0 2.005.904 2.005 2.019 0 1.115-.898 2.019-2.005 2.019z"/>
</svg>
